<mxfile host="app.diagrams.net" agent="Mozilla/5.0 (Windows NT 10.0; Win64; x64) AppleWebKit/537.36 (KHTML, like Gecko) Chrome/130.0.0.0 Safari/537.36" version="24.8.4">
  <diagram name="Page-1" id="82wocoAAZMFDjcAh4eow">
    <mxGraphModel dx="1375" dy="608" grid="1" gridSize="10" guides="1" tooltips="1" connect="1" arrows="1" fold="1" page="1" pageScale="1" pageWidth="850" pageHeight="1100" math="0" shadow="0">
      <root>
        <mxCell id="0" />
        <mxCell id="1" parent="0" />
        <mxCell id="rnSJH591flgF4iQIXhOK-1" value="" style="ellipse;whiteSpace=wrap;html=1;" vertex="1" parent="1">
          <mxGeometry x="210" y="280" width="200" height="110" as="geometry" />
        </mxCell>
        <mxCell id="rnSJH591flgF4iQIXhOK-2" value="" style="ellipse;whiteSpace=wrap;html=1;" vertex="1" parent="1">
          <mxGeometry x="280" y="295" width="120" height="80" as="geometry" />
        </mxCell>
        <mxCell id="rnSJH591flgF4iQIXhOK-3" value="cluster -ip" style="ellipse;whiteSpace=wrap;html=1;" vertex="1" parent="1">
          <mxGeometry x="305" y="315" width="70" height="40" as="geometry" />
        </mxCell>
        <mxCell id="rnSJH591flgF4iQIXhOK-4" value="loadbalancer" style="text;html=1;align=center;verticalAlign=middle;whiteSpace=wrap;rounded=0;fontSize=16;" vertex="1" parent="1">
          <mxGeometry x="100" y="290" width="90" height="30" as="geometry" />
        </mxCell>
        <mxCell id="rnSJH591flgF4iQIXhOK-5" value="node port" style="text;html=1;align=center;verticalAlign=middle;whiteSpace=wrap;rounded=0;fontSize=16;" vertex="1" parent="1">
          <mxGeometry x="230" y="315" width="60" height="30" as="geometry" />
        </mxCell>
        <mxCell id="rnSJH591flgF4iQIXhOK-14" style="edgeStyle=none;curved=1;rounded=0;orthogonalLoop=1;jettySize=auto;html=1;fontSize=12;startSize=8;endSize=8;" edge="1" parent="1" source="rnSJH591flgF4iQIXhOK-6">
          <mxGeometry relative="1" as="geometry">
            <mxPoint x="130" y="500" as="targetPoint" />
          </mxGeometry>
        </mxCell>
        <mxCell id="rnSJH591flgF4iQIXhOK-6" value="" style="rounded=0;whiteSpace=wrap;html=1;" vertex="1" parent="1">
          <mxGeometry x="240" y="470" width="120" height="60" as="geometry" />
        </mxCell>
        <mxCell id="rnSJH591flgF4iQIXhOK-13" style="edgeStyle=none;curved=1;rounded=0;orthogonalLoop=1;jettySize=auto;html=1;fontSize=12;startSize=8;endSize=8;" edge="1" parent="1" source="rnSJH591flgF4iQIXhOK-7">
          <mxGeometry relative="1" as="geometry">
            <mxPoint x="130" y="600" as="targetPoint" />
          </mxGeometry>
        </mxCell>
        <mxCell id="rnSJH591flgF4iQIXhOK-17" value="" style="edgeStyle=none;curved=1;rounded=0;orthogonalLoop=1;jettySize=auto;html=1;fontSize=12;startSize=8;endSize=8;" edge="1" parent="1" source="rnSJH591flgF4iQIXhOK-7" target="rnSJH591flgF4iQIXhOK-16">
          <mxGeometry relative="1" as="geometry" />
        </mxCell>
        <mxCell id="rnSJH591flgF4iQIXhOK-7" value="" style="rounded=0;whiteSpace=wrap;html=1;" vertex="1" parent="1">
          <mxGeometry x="240" y="570" width="120" height="60" as="geometry" />
        </mxCell>
        <mxCell id="rnSJH591flgF4iQIXhOK-15" style="edgeStyle=none;curved=1;rounded=0;orthogonalLoop=1;jettySize=auto;html=1;fontSize=12;startSize=8;endSize=8;" edge="1" parent="1" source="rnSJH591flgF4iQIXhOK-8">
          <mxGeometry relative="1" as="geometry">
            <mxPoint x="130" y="720" as="targetPoint" />
          </mxGeometry>
        </mxCell>
        <mxCell id="rnSJH591flgF4iQIXhOK-8" value="" style="rounded=0;whiteSpace=wrap;html=1;" vertex="1" parent="1">
          <mxGeometry x="240" y="690" width="120" height="60" as="geometry" />
        </mxCell>
        <mxCell id="rnSJH591flgF4iQIXhOK-11" value="" style="edgeStyle=orthogonalEdgeStyle;rounded=0;orthogonalLoop=1;jettySize=auto;html=1;fontSize=12;" edge="1" parent="1" source="rnSJH591flgF4iQIXhOK-19">
          <mxGeometry relative="1" as="geometry">
            <mxPoint x="30" y="599" as="sourcePoint" />
            <mxPoint x="130" y="500" as="targetPoint" />
          </mxGeometry>
        </mxCell>
        <mxCell id="rnSJH591flgF4iQIXhOK-12" style="edgeStyle=orthogonalEdgeStyle;rounded=0;orthogonalLoop=1;jettySize=auto;html=1;fontSize=12;startSize=8;endSize=8;" edge="1" parent="1" source="rnSJH591flgF4iQIXhOK-9">
          <mxGeometry relative="1" as="geometry">
            <mxPoint x="131" y="740" as="targetPoint" />
            <Array as="points">
              <mxPoint x="131" y="595" />
            </Array>
          </mxGeometry>
        </mxCell>
        <mxCell id="rnSJH591flgF4iQIXhOK-9" value="" style="html=1;verticalLabelPosition=bottom;align=center;labelBackgroundColor=#ffffff;verticalAlign=top;strokeWidth=2;strokeColor=#0080F0;shadow=0;dashed=0;shape=mxgraph.ios7.icons.user;" vertex="1" parent="1">
          <mxGeometry y="580" width="30" height="30" as="geometry" />
        </mxCell>
        <mxCell id="rnSJH591flgF4iQIXhOK-22" value="" style="edgeStyle=none;curved=1;rounded=0;orthogonalLoop=1;jettySize=auto;html=1;fontSize=12;startSize=8;endSize=8;" edge="1" parent="1" source="rnSJH591flgF4iQIXhOK-16" target="rnSJH591flgF4iQIXhOK-21">
          <mxGeometry relative="1" as="geometry" />
        </mxCell>
        <mxCell id="rnSJH591flgF4iQIXhOK-16" value="cluster ip" style="rounded=0;whiteSpace=wrap;html=1;" vertex="1" parent="1">
          <mxGeometry x="480" y="570" width="90" height="50" as="geometry" />
        </mxCell>
        <mxCell id="rnSJH591flgF4iQIXhOK-20" value="" style="edgeStyle=orthogonalEdgeStyle;rounded=0;orthogonalLoop=1;jettySize=auto;html=1;fontSize=12;" edge="1" parent="1" target="rnSJH591flgF4iQIXhOK-19">
          <mxGeometry relative="1" as="geometry">
            <mxPoint x="30" y="599" as="sourcePoint" />
            <mxPoint x="130" y="500" as="targetPoint" />
          </mxGeometry>
        </mxCell>
        <mxCell id="rnSJH591flgF4iQIXhOK-19" value="" style="outlineConnect=0;dashed=0;verticalLabelPosition=bottom;verticalAlign=top;align=center;html=1;shape=mxgraph.aws3.application_load_balancer;fillColor=#F58534;gradientColor=none;" vertex="1" parent="1">
          <mxGeometry x="50" y="580" width="50" height="30" as="geometry" />
        </mxCell>
        <mxCell id="rnSJH591flgF4iQIXhOK-21" value="pod" style="ellipse;whiteSpace=wrap;html=1;rounded=0;" vertex="1" parent="1">
          <mxGeometry x="640" y="555" width="80" height="80" as="geometry" />
        </mxCell>
      </root>
    </mxGraphModel>
  </diagram>
</mxfile>
